<?xml version="1.0" encoding="UTF-8" standalone="no"?>
<svg
   data-name="Layer 1"
   viewBox="0 0 100 125"
   x="0px"
   y="0px"
   version="1.1"
   id="svg9727"
   sodipodi:docname="d20_2.svg"
   inkscape:version="1.2.2 (b0a8486541, 2022-12-01)"
   xmlns:inkscape="http://www.inkscape.org/namespaces/inkscape"
   xmlns:sodipodi="http://sodipodi.sourceforge.net/DTD/sodipodi-0.dtd"
   xmlns="http://www.w3.org/2000/svg"
   xmlns:svg="http://www.w3.org/2000/svg">
  <defs
     id="defs9731" />
  <sodipodi:namedview
     id="namedview9729"
     pagecolor="#ffffff"
     bordercolor="#666666"
     borderopacity="1.0"
     inkscape:showpageshadow="2"
     inkscape:pageopacity="0.0"
     inkscape:pagecheckerboard="0"
     inkscape:deskcolor="#d1d1d1"
     showgrid="false"
     inkscape:zoom="5.3400704"
     inkscape:cx="16.572815"
     inkscape:cy="26.685041"
     inkscape:window-width="1080"
     inkscape:window-height="1892"
     inkscape:window-x="3000"
     inkscape:window-y="0"
     inkscape:window-maximized="1"
     inkscape:current-layer="svg9727" />
  <path
     d="m32.19,44.88s-.07,0-.1,0l-25.59-5.16c-.18-.04-.33-.17-.38-.35-.05-.18,0-.37.13-.5L40.46,4.83c.16-.16.4-.19.59-.08.19.11.3.33.25.55l-8.62,39.19c-.05.23-.26.39-.49.39Zm-24.58-5.96l24.19,4.87L39.96,6.74,7.61,38.91Z"
     id="path9707" />
  <path
     d="m32.19,44.88c-.13,0-.25-.05-.35-.14-.13-.12-.18-.3-.14-.47L40.32,5.08c.03-.15.14-.28.28-.35.14-.06.31-.06.45.02l44.72,25.03c.18.1.28.3.25.5s-.17.37-.37.42l-53.34,14.16s-.09.02-.13.02ZM41.16,5.95l-8.3,37.73,51.36-13.63L41.16,5.95Z"
     id="path9709" />
  <path
     d="m85.53,30.72c-.08,0-.17-.02-.24-.06L40.57,5.63c-.22-.12-.32-.4-.22-.63.1-.23.36-.36.6-.28l41.45,12.44c.17.05.3.18.34.35l3.26,12.59c.05.19-.02.4-.18.52-.09.07-.2.1-.31.1ZM45.03,6.98l39.72,22.24-2.9-11.19L45.03,6.98Z"
     id="path9711" />
  <path
     d="m72.31,87.15c-.14,0-.27-.06-.36-.16L31.83,44.72c-.12-.13-.17-.31-.12-.48.05-.17.18-.3.35-.35l53.34-14.16c.17-.05.35,0,.48.12.13.12.18.3.14.47l-13.22,56.44c-.04.18-.18.32-.36.37-.04.01-.09.02-.13.02Zm-39.18-42.51l38.9,41,12.82-54.72-51.72,13.73Z"
     id="path9713" />
  <path
     d="m23.28,88.37c-.15,0-.29-.07-.38-.18-.1-.12-.14-.27-.11-.42l8.91-43.5c.04-.18.17-.33.35-.38.18-.05.37,0,.5.14l40.12,42.28c.14.14.17.35.1.54-.08.18-.25.3-.45.31l-49.03,1.22h-.01Zm9.2-42.96l-8.59,41.94,47.28-1.17-38.69-40.77Z"
     id="path9715" />
  <path
     d="m23.28,88.37c-.21,0-.4-.13-.47-.34L6.12,39.38c-.06-.17-.02-.36.1-.49.12-.13.3-.19.47-.16l25.59,5.16c.13.03.24.1.32.21.07.11.1.25.07.38l-8.91,43.5c-.04.22-.23.38-.46.4-.01,0-.02,0-.03,0ZM7.35,39.88l15.81,46.09,8.44-41.21-24.25-4.89Z"
     id="path9717" />
  <path
     d="m62.66,95.31s-.06,0-.09,0l-39.37-6.94c-.25-.04-.43-.27-.41-.53.02-.26.23-.46.49-.46l49.03-1.22c.2,0,.4.12.48.32.08.2.02.42-.14.56l-9.66,8.16c-.09.08-.21.12-.32.12Zm-34.36-7.06l34.22,6.03,8.39-7.09-42.61,1.06Z"
     id="path9719" />
  <path
     d="m72.31,87.15c-.08,0-.16-.02-.23-.05-.2-.1-.31-.34-.26-.56l13.22-56.44c.05-.23.25-.38.48-.39.2-.04.43.16.49.38l7.87,32.15c.04.16,0,.32-.11.45l-21.09,24.28c-.1.11-.24.17-.38.17Zm13.23-54.79l-12.28,52.44,19.6-22.56-7.32-29.88Z"
     id="path9721" />
  <text
     xml:space="preserve"
     style="font-size:27.654px;line-height:125%;font-family:monofur;-inkscape-font-specification:monofur;letter-spacing:0px;word-spacing:0px;fill:none;stroke:#000000;stroke-width:0.0709367;stroke-linecap:butt;stroke-linejoin:miter;stroke-opacity:1"
     x="28.228001"
     y="55.480419"
     id="text10534"
     transform="rotate(-27.046537)"><tspan
       sodipodi:role="line"
       id="tspan10532"
       x="28.228001"
       y="55.480419"
       style="font-style:normal;font-variant:normal;font-weight:normal;font-stretch:normal;font-family:Inconsolata;-inkscape-font-specification:Inconsolata;fill:#000000;stroke-width:0.0709367">2</tspan></text>
</svg>
