<?xml version="1.0" encoding="iso-8859-1"?>
<!-- Uploaded to: SVG Repo, www.svgrepo.com, Generator: SVG Repo Mixer Tools -->
<svg fill="#000000" height="800px" width="800px" version="1.1" id="Layer_1" xmlns="http://www.w3.org/2000/svg" xmlns:xlink="http://www.w3.org/1999/xlink" 
	 viewBox="0 0 512 512" xml:space="preserve">
<g>
	<g>
		<path d="M322.781,294.383h-16.937V79.365C305.844,35.603,270.242,0,226.48,0h-12.598c-4.267,0-7.726,3.458-7.726,7.726v36.223
			c-0.008,0.177-0.004,0.354,0,0.531v249.904H189.22c-14.863,0-26.955,12.091-26.955,26.954v6.763
			c0,14.863,12.092,26.955,26.955,26.955h16.937v107.102c0,27.484,22.36,49.844,49.844,49.844c27.484,0,49.844-22.36,49.844-49.844
			V355.056h16.937c14.863,0,26.954-12.092,26.954-26.955v-6.763C349.735,306.474,337.644,294.383,322.781,294.383z M221.608,15.451
			h4.872c35.241,0,63.912,28.671,63.912,63.913v215.018h-20.903V120.336c0-33.543-18.643-64.687-47.881-80.709V15.451z
			 M254.038,120.336v174.047h-32.43V57.816C241.63,72.014,254.038,95.379,254.038,120.336z M290.393,462.156
			c0,18.964-15.429,34.392-34.392,34.392s-34.392-15.429-34.392-34.392v-9.297h68.785V462.156z M290.393,437.409h-68.785v-18.164h0
			h68.785V437.409z M290.393,403.793h-68.785v-18.164h68.785V403.793z M290.393,370.177h-68.785v-15.123h68.785V370.177z
			 M322.781,339.605H189.22c-6.343,0-11.504-5.161-11.504-11.504v-6.763c0-6.342,5.161-11.503,11.504-11.503h24.662h84.236h24.662
			c6.343,0,11.503,5.161,11.503,11.503v6.763h0C334.284,334.444,329.123,339.605,322.781,339.605z"/>
	</g>
</g>
</svg>